<svg width="24" height="24" viewBox="0 0 24 24" fill="none" xmlns="http://www.w3.org/2000/svg">
<path fill-rule="evenodd" clip-rule="evenodd" d="M0.00582886 12.0004C0.00582886 5.38671 5.38596 0.00585938 12 0.00585938C18.6138 0.00585938 23.9942 5.38671 23.9942 12.0004C23.9942 18.6141 18.6137 23.9942 12 23.9942C5.38596 23.9942 0.00582886 18.6141 0.00582886 12.0004ZM1.8977 12.0004C1.8977 17.5706 6.42943 22.1023 12 22.1023C17.5706 22.1023 22.1023 17.5706 22.1023 12.0004C22.1023 6.42947 17.5706 1.89773 12 1.89773C6.42943 1.89773 1.8977 6.42947 1.8977 12.0004Z" fill="white"/>
<path d="M10.1033 9.64964C10.1033 8.89082 11.2132 8.76124 12.1759 8.76124C13.0832 8.76124 14.323 9.18649 15.3597 9.72393L15.5628 7.63246C15.0444 7.33606 13.8417 6.98432 12.6201 6.91082L12.9161 4.78223H10.9357L11.2322 6.91082C8.67829 7.15108 7.84525 8.6316 7.84525 9.87173C7.84525 12.9994 13.6746 12.3338 13.6746 14.2578C13.6746 14.9803 12.9904 15.2388 11.7871 15.2388C10.1588 15.2388 8.93679 14.6656 8.308 14.0729L7.99305 16.4236C8.58584 16.7753 9.78813 17.0899 11.2322 17.1642L10.9357 19.2186H12.9161L12.6201 17.1453C15.6182 16.886 16.1549 15.2942 16.1549 14.2397C16.155 10.5199 10.1033 11.4447 10.1033 9.64964Z" fill="white"/>
</svg>
