<svg width="90" height="90" viewBox="0 0 90 90" fill="none" xmlns="http://www.w3.org/2000/svg">
<circle cx="45" cy="45" r="45" fill="#D2D2E0"/>
<circle cx="44.7273" cy="36.8182" r="11.3636" fill="white"/>
<path fill-rule="evenodd" clip-rule="evenodd" d="M72.4078 32.7548C72.5841 33.9631 72.2575 35.1905 71.5022 36.1572L70.0342 38.0491C69.0524 39.3034 68.8085 40.974 69.3916 42.4509L70.2613 44.6381C70.7105 45.7753 70.6743 47.0436 70.1608 48.154C69.6474 49.2645 68.7006 50.1225 67.5359 50.5327L65.2814 51.3255C63.7673 51.8569 62.6465 53.1334 62.3289 54.6884L61.858 57.0068C61.8303 57.1381 61.7971 57.2584 61.7583 57.3841L67.6523 75.2319L58.5233 72.4103L52.8398 80L47.3779 63.4537C45.6873 64.6433 43.3972 64.5602 41.7997 63.2514L36.6092 80L30.9257 72.4103L21.7967 75.2319L27.5522 56.7663L27.1202 54.6884C26.8025 53.1334 25.6818 51.8569 24.1676 51.3255L21.9131 50.5327C20.7484 50.1225 19.8016 49.2645 19.2882 48.154C18.7748 47.0436 18.7385 45.7753 19.1877 44.6381L20.0574 42.4509C20.6405 40.974 20.3966 39.3034 19.4148 38.0491L17.9524 36.179C17.1971 35.2123 16.8704 33.985 17.0468 32.7767C17.2231 31.5683 17.8875 30.4819 18.8885 29.765L20.8273 28.3761C22.1277 27.4453 22.8384 25.9095 22.6997 24.3298L22.4947 21.973C22.3815 20.7529 22.7754 19.5398 23.5859 18.6118C24.3964 17.6839 25.5541 17.1209 26.7933 17.0518L29.1864 16.9206C30.7895 16.8304 32.2275 15.9173 32.9753 14.5146L34.0832 12.4204C34.6598 11.339 35.6557 10.5344 36.8436 10.1903C38.0315 9.84612 39.3099 9.99179 40.3871 10.594L42.4699 11.7587C43.8687 12.5405 45.5804 12.5405 46.9791 11.7587L49.0619 10.594C50.1369 9.98835 51.4145 9.83842 52.6034 10.1784C53.7923 10.5184 54.7909 11.3194 55.3713 12.3985L56.4792 14.4927C57.227 15.8955 58.665 16.8086 60.2682 16.8987L62.6612 17.0299C63.9005 17.099 65.0581 17.662 65.8686 18.59C66.6792 19.5179 67.073 20.731 66.9598 21.9512L66.7549 24.3079C66.6162 25.8876 67.3268 27.4234 68.6272 28.3543L70.566 29.7431C71.567 30.4601 72.2314 31.5465 72.4078 32.7548ZM44.7245 21.5411C35.9901 21.5411 28.9094 28.5305 28.9094 37.1523C28.9186 45.7705 35.9939 52.7546 44.7245 52.7636C53.4589 52.7636 60.5396 45.7742 60.5396 37.1523C60.5396 28.5305 53.4589 21.5411 44.7245 21.5411Z" fill="white"/>
</svg>
