<svg width="22" height="22" viewBox="0 0 22 22" fill="none" xmlns="http://www.w3.org/2000/svg">
<path fill-rule="evenodd" clip-rule="evenodd" d="M22 9.79733C22 4.411 17.0732 0 11 0C4.92678 0 0 4.92678 0 11C0 17.0732 4.92678 22 11 22C12.0316 22 12.8333 21.1982 12.8333 20.1667C12.8333 19.7083 12.661 19.25 12.375 18.9066C12.089 18.5631 11.9167 18.1622 11.9167 17.7039C11.9167 16.6723 12.7184 15.8706 13.75 15.8706H15.8693C19.25 15.8706 22 13.178 22 9.79733ZM9.79733 4.29733C9.79733 5.32889 8.99556 6.13067 7.964 6.13067C6.93244 6.13067 6.13067 5.32889 6.13067 4.29733C6.13067 3.26578 6.93244 2.464 7.964 2.464C8.99556 2.464 9.79733 3.26578 9.79733 4.29733ZM14.036 6.13067C15.0676 6.13067 15.8693 5.32889 15.8693 4.29733C15.8693 3.26578 15.0676 2.464 14.036 2.464C13.0044 2.464 12.2027 3.26578 12.2027 4.29733C12.2027 5.32889 13.0044 6.13067 14.036 6.13067ZM17.7027 11C18.7342 11 19.536 10.1982 19.536 9.16667C19.536 8.13511 18.7342 7.33333 17.7027 7.33333C16.6711 7.33333 15.8693 8.13511 15.8693 9.16667C15.8693 10.1982 16.6711 11 17.7027 11ZM4.29733 11C5.32889 11 6.13067 10.1982 6.13067 9.16667C6.13067 8.13511 5.32889 7.33333 4.29733 7.33333C3.26578 7.33333 2.464 8.13511 2.464 9.16667C2.464 10.1982 3.26578 11 4.29733 11Z" fill="white"/>
</svg>
