<svg width="56" height="70" viewBox="0 0 56 70" fill="none" xmlns="http://www.w3.org/2000/svg">
<circle cx="27.7273" cy="26.8182" r="11.3636" fill="white"/>
<path fill-rule="evenodd" clip-rule="evenodd" d="M55.4078 22.7548C55.5841 23.9631 55.2575 25.1905 54.5022 26.1572L53.0342 28.0491C52.0524 29.3034 51.8085 30.974 52.3916 32.4509L53.2613 34.6381C53.7105 35.7753 53.6743 37.0436 53.1608 38.154C52.6474 39.2645 51.7006 40.1225 50.5359 40.5327L48.2814 41.3255C46.7673 41.8569 45.6465 43.1334 45.3289 44.6884L44.858 47.0068C44.8303 47.1381 44.7971 47.2584 44.7583 47.3841L50.6523 65.2319L41.5233 62.4103L35.8398 70L30.3779 53.4537C28.6873 54.6433 26.3972 54.5602 24.7997 53.2514L19.6092 70L13.9257 62.4103L4.79675 65.2319L10.5522 46.7663L10.1202 44.6884C9.8025 43.1334 8.68176 41.8569 7.16763 41.3255L4.91307 40.5327C3.74844 40.1225 2.80159 39.2645 2.28817 38.154C1.77476 37.0436 1.7385 35.7753 2.18767 34.6381L3.05736 32.4509C3.6405 30.974 3.39663 29.3034 2.41478 28.0491L0.952372 26.179C0.197093 25.2123 -0.12958 23.985 0.0467831 22.7767C0.223146 21.5683 0.887522 20.4819 1.88854 19.765L3.82734 18.3761C5.12773 17.4453 5.83837 15.9095 5.69968 14.3298L5.49472 11.973C5.38154 10.7529 5.77539 9.53977 6.58591 8.61185C7.39643 7.68392 8.55408 7.12085 9.79332 7.05179L12.1864 6.92056C13.7895 6.83043 15.2275 5.91733 15.9753 4.51462L17.0832 2.42035C17.6598 1.33898 18.6557 0.534402 19.8436 0.190259C21.0315 -0.153883 22.3099 -0.00821167 23.3871 0.594022L25.4699 1.75872C26.8687 2.54052 28.5804 2.54052 29.9791 1.75872L32.0619 0.594022C33.1369 -0.0116467 34.4145 -0.161585 35.6034 0.178421C36.7923 0.518427 37.7909 1.31937 38.3713 2.39848L39.4792 4.49274C40.227 5.89546 41.665 6.80856 43.2682 6.89869L45.6612 7.02992C46.9005 7.09898 48.0581 7.66205 48.8686 8.58997C49.6792 9.5179 50.073 10.731 49.9598 11.9512L49.7549 14.3079C49.6162 15.8876 50.3268 17.4234 51.6272 18.3543L53.566 19.7431C54.567 20.4601 55.2314 21.5465 55.4078 22.7548ZM27.7245 11.5411C18.9901 11.5411 11.9094 18.5305 11.9094 27.1523C11.9186 35.7705 18.9939 42.7546 27.7245 42.7636C36.4589 42.7636 43.5396 35.7742 43.5396 27.1523C43.5396 18.5305 36.4589 11.5411 27.7245 11.5411Z" fill="white"/>
</svg>
